<svg xmlns="http://www.w3.org/2000/svg" width="163" height="30" fill="none">
  <g clip-path="url(#a)">
    <path fill="#FF5C00" d="M146.528 13.79v8.56h-4.022V8.68l3.901-1.21v1.844a4.155 4.155 0 0 1 1.815-1.663 5.591 5.591 0 0 1 2.48-.575c1.754 0 3.084.555 3.992 1.664.928 1.088 1.391 2.5 1.391 4.234v9.375h-4.022v-8.68c0-.887-.232-1.603-.696-2.147-.443-.544-1.129-.817-2.056-.817-.847 0-1.522.293-2.027.878-.504.584-.756 1.32-.756 2.207zm16.452 8.56h-4.022V1.662l4.022-1.21v21.896zm-26.523-4.144a2.389 2.389 0 0 0-.725 1.754c0 .665.241 1.24.725 1.724a2.39 2.39 0 0 0 1.754.726c.686 0 1.271-.242 1.755-.726s.725-1.059.725-1.724c0-.706-.241-1.3-.725-1.784s-1.069-.726-1.755-.726c-.685 0-1.27.252-1.754.756zM72.961.846a2.39 2.39 0 0 0-.725 1.754c0 .666.241 1.24.725 1.724a2.39 2.39 0 0 0 1.754.726c.686 0 1.27-.242 1.755-.726s.725-1.058.725-1.724c0-.705-.241-1.3-.725-1.784S75.4.09 74.715.09c-.685 0-1.27.252-1.754.756z"/>
    <path fill="#442DD2" fill-rule="evenodd" d="M32.992 22.35h4.023V.452l-4.023 1.21v20.686zM54.295.452v19.204c0 .988.04 1.886.121 2.692h-3.84a8.83 8.83 0 0 1-.152-1.724c-.343.625-.887 1.13-1.633 1.512-.726.383-1.573.575-2.54.575-2.118 0-3.862-.736-5.233-2.208-1.35-1.492-2.026-3.367-2.026-5.625 0-2.198.665-4.042 1.996-5.534 1.351-1.493 3.065-2.239 5.142-2.239 2.136 0 3.538.616 4.203 1.845V1.663l3.962-1.21zm-11.25 14.426c0 1.31.342 2.349 1.028 3.115.686.746 1.573 1.12 2.661 1.12 1.07 0 1.946-.384 2.632-1.15.685-.766 1.028-1.805 1.028-3.115 0-1.29-.343-2.299-1.028-3.025-.686-.746-1.563-1.119-2.632-1.119-1.068 0-1.955.373-2.661 1.12-.686.745-1.028 1.764-1.028 3.054zm67.429 4.779V.453l-3.961 1.21V8.95c-.666-1.23-2.067-1.845-4.204-1.845-2.077 0-3.79.746-5.142 2.238-1.33 1.493-1.996 3.337-1.996 5.535 0 2.258.676 4.133 2.027 5.625 1.37 1.472 3.115 2.208 5.232 2.208.967 0 1.814-.192 2.54-.575.746-.383 1.291-.887 1.633-1.512 0 .645.051 1.22.152 1.724h3.841a27.1 27.1 0 0 1-.122-2.692zm-10.222-1.664c-.685-.766-1.028-1.805-1.028-3.115 0-1.29.343-2.308 1.028-3.054.706-.746 1.593-1.12 2.661-1.12 1.069 0 1.946.374 2.632 1.12.685.725 1.028 1.733 1.028 3.024 0 1.31-.343 2.349-1.028 3.115-.686.766-1.563 1.15-2.632 1.15-1.088 0-1.975-.374-2.661-1.12zM83.861 13.79v8.56h-4.023V8.68l3.902-1.21v1.844a4.15 4.15 0 0 1 1.815-1.663 5.592 5.592 0 0 1 2.48-.575c1.754 0 3.084.555 3.992 1.664.927 1.088 1.39 2.5 1.39 4.234v9.375h-4.022v-8.68c0-.887-.232-1.603-.695-2.147-.444-.544-1.13-.817-2.057-.817-.847 0-1.522.293-2.026.878-.504.584-.756 1.32-.756 2.207zm-7.12 8.56H72.72V8.68l4.022-1.21v14.88zm46.474-9.134c-.04-.827-.342-1.523-.907-2.087-.544-.565-1.351-.847-2.419-.847-.968 0-1.755.302-2.359.907-.605.605-.928 1.28-.968 2.027h6.653zm.393 3.87 3.358.999c-.404 1.37-1.2 2.5-2.39 3.387-1.169.887-2.631 1.33-4.385 1.33-2.137 0-3.952-.715-5.444-2.146-1.492-1.452-2.237-3.388-2.237-5.807 0-2.299.725-4.174 2.177-5.625 1.451-1.472 3.165-2.208 5.141-2.208 2.299 0 4.093.685 5.383 2.056 1.311 1.371 1.966 3.257 1.966 5.656 0 .161-.01.343-.03.544v.484l-.03.212h-10.646c.04.968.423 1.774 1.149 2.42.726.644 1.593.967 2.601.967 1.714 0 2.843-.756 3.387-2.268zm14.6-5.624V7.409c-.403-.04-.716-.06-.937-.06-2.097 0-3.509.776-4.234 2.328V7.47l-3.902 1.21v13.67h4.022v-6.805c0-1.492.353-2.56 1.059-3.205.706-.666 1.633-.999 2.783-.999.403 0 .806.04 1.209.121zM71.482 7.47l-5.777 14.879h-4.022l-5.61-13.68 3.947-1.2 3.689 9.98 3.019-8.498 4.754-1.482zm-51.063 5.746h6.653c-.04-.827-.342-1.523-.907-2.087-.544-.565-1.35-.847-2.42-.847-.967 0-1.753.302-2.358.907-.605.605-.928 1.28-.968 2.026zm7.047 3.87 3.357.999c-.404 1.37-1.2 2.5-2.39 3.387-1.169.887-2.63 1.33-4.385 1.33-2.137 0-3.952-.715-5.444-2.147-1.492-1.451-2.238-3.387-2.238-5.806 0-2.299.726-4.174 2.178-5.626 1.452-1.471 3.165-2.207 5.141-2.207 2.299 0 4.093.685 5.384 2.056 1.31 1.371 1.965 3.256 1.965 5.656 0 .161-.01.343-.03.544v.484l-.03.212H20.328c.04.968.424 1.774 1.15 2.42.725.644 1.592.967 2.6.967 1.714 0 2.843-.756 3.388-2.268zM0 14.366A7.319 7.319 0 0 1 11.905 8.66l2.733-.829v15.364a6.714 6.714 0 0 1-6.714 6.714h-1.21A6.717 6.717 0 0 1 .19 24.787l3.962-.815a3.298 3.298 0 0 0 6.494-.806v-1.131A7.319 7.319 0 0 1 0 15.515v-1.15zm10.646-.595v2.34a3.297 3.297 0 0 1-6.593-.021V13.79a3.297 3.297 0 0 1 6.593-.02z" clip-rule="evenodd"/>
  </g>
  <defs>
    <clipPath id="a">
      <path fill="#fff" d="M0 .09h163v29.82H0z"/>
    </clipPath>
  </defs>
</svg>