<svg xmlns="http://www.w3.org/2000/svg" width="100" height="100">
  <g fill="none" fill-rule="evenodd">
    <path fill="#FE6E63" d="M0 100h100V0H0z"/>
    <g fill="#FFF">
      <path d="M32.524 42.768a5.623 5.623 0 0 1 2.276 2.329c.544 1.022.816 2.247.816 3.684v6.55a1.31 1.31 0 0 1-1.35 1.356 1.31 1.31 0 0 1-1.35-1.356v-6.55c0-1.437-.382-2.52-1.147-3.26-.766-.738-1.793-1.103-3.062-1.103-.745 0-1.42.152-2.024.456-.604.304-1.088.709-1.43 1.225a3.063 3.063 0 0 0-.514 1.73v7.502c0 .394-.12.718-.372.971-.252.254-.574.385-.977.385a1.31 1.31 0 0 1-1.35-1.356V34.387c0-.405.131-.74.383-.982.252-.243.574-.375.967-.375.403 0 .735.122.977.375.241.253.372.577.372.982v9.363a5.952 5.952 0 0 1 2.014-1.316 6.59 6.59 0 0 1 2.488-.465c1.218 0 2.316.263 3.283.8M68.466 56.09a5.623 5.623 0 0 1-2.276-2.328c-.544-1.023-.826-2.248-.826-3.685v-6.55a1.31 1.31 0 0 1 1.35-1.356 1.31 1.31 0 0 1 1.35 1.357v6.549c0 1.437.382 2.52 1.147 3.26.766.738 1.793 1.103 3.062 1.103.745 0 1.42-.152 2.024-.456.604-.303 1.088-.708 1.43-1.224a3.063 3.063 0 0 0 .514-1.731v-7.501c0-.395.12-.72.372-.972.252-.253.574-.385.977-.385a1.31 1.31 0 0 1 1.35 1.357v21.085c0 .405-.131.74-.383.982-.252.253-.574.375-.967.375-.403 0-.735-.122-.977-.375-.252-.253-.372-.577-.372-.982v-9.515a5.952 5.952 0 0 1-2.014 1.316 6.59 6.59 0 0 1-2.488.465c-1.208.01-2.306-.253-3.273-.79M43.068 45.35c-.806.708-1.31 1.66-1.52 2.844h8.821c-.161-1.184-.604-2.136-1.32-2.844-.724-.709-1.67-1.063-2.83-1.063-1.298 0-2.346.354-3.151 1.063m9.386 4.646c-.232.223-.524.334-.876.334H41.517c.191 1.245.755 2.247 1.682 3.006.926.76 2.064 1.144 3.404 1.144.533 0 1.077-.1 1.651-.293.574-.193 1.048-.435 1.42-.719.252-.192.544-.293.876-.293.333 0 .605.09.796.263.312.263.473.567.473.91 0 .325-.14.588-.423.8-.604.476-1.35.871-2.235 1.175-.897.303-1.743.455-2.558.455-1.45 0-2.75-.314-3.888-.941a6.785 6.785 0 0 1-2.689-2.622c-.644-1.113-.966-2.389-.966-3.806 0-1.417.302-2.693.916-3.816a6.633 6.633 0 0 1 2.538-2.632c1.077-.628 2.316-.942 3.696-.942 1.36 0 2.528.304 3.525.901a5.95 5.95 0 0 1 2.276 2.53c.533 1.084.795 2.33.795 3.726-.01.314-.12.597-.352.82M56.583 33.405c.251-.253.564-.375.956-.375.393 0 .705.122.957.375s.373.567.373.962v17.38c0 .658.12 1.195.372 1.62.252.425.564.638.957.638h.665c.352 0 .634.121.856.374.221.253.332.567.332.962s-.171.708-.503.961c-.333.254-.766.375-1.3.375h-.05c-.755 0-1.44-.213-2.054-.628-.615-.415-1.078-1.002-1.42-1.75-.333-.75-.504-1.6-.504-2.542v-17.4c0-.385.121-.71.363-.952"/>
    </g>
  </g>
</svg>