<svg xmlns="http://www.w3.org/2000/svg" width="256" height="256" fill="none">
  <path fill="#D0BFFF" d="M0 0h256v256H0z"/>
  <g fill="#2A2162" clip-path="url(#a)">
    <path d="M108.543 204.188c0 14.635-11.848 26.5-26.463 26.5-14.616 0-26.464-11.865-26.464-26.5 0-14.636 11.848-26.5 26.464-26.5 14.615 0 26.463 11.864 26.463 26.5Z"/>
    <path fill-rule="evenodd" d="M157.355 178.856c29.522-11.589 50.427-40.372 50.427-74.043 0-43.907-35.545-79.5-79.391-79.5-43.846 0-79.391 35.593-79.391 79.5a79.507 79.507 0 0 0 4.115 25.331c8.974-3.522 18.744-5.456 28.965-5.456 35.001 0 64.713 22.681 75.275 54.168ZM128.391 78.313c-14.616 0-26.464 11.864-26.464 26.5 0 14.635 11.848 26.5 26.464 26.5 14.615 0 26.464-11.865 26.464-26.5 0-14.636-11.849-26.5-26.464-26.5Z" clip-rule="evenodd"/>
  </g>
  <defs>
    <clipPath id="a">
      <path fill="#fff" d="M49 22h158.782v212H49z"/>
    </clipPath>
  </defs>
</svg>